<svg xmlns="http://www.w3.org/2000/svg" viewBox="0 0 280 80" width="280" height="80">
  <defs>
    <linearGradient id="gCyan" x1="0" y1="0" x2="1" y2="1"><stop offset="0%" stop-color="#00F0FF"/><stop offset="100%" stop-color="#06F0B0"/></linearGradient>
    <linearGradient id="gMagenta" x1="0" y1="0" x2="1" y2="1"><stop offset="0%" stop-color="#7C3AED"/><stop offset="100%" stop-color="#FF00FF"/></linearGradient>
    <linearGradient id="gAccent" x1="0" y1="0" x2="1" y2="1"><stop offset="0%" stop-color="#00F0FF"/><stop offset="100%" stop-color="#FF00FF"/></linearGradient>
    <linearGradient id="gHexBg" x1="0" y1="0" x2="0" y2="1"><stop offset="0%" stop-color="#0C0C28"/><stop offset="100%" stop-color="#04040E"/></linearGradient>
    <filter id="glowCyan" x="-50%" y="-50%" width="200%" height="200%">
      <feGaussianBlur stdDeviation="3" result="br1"/>
      <feGaussianBlur stdDeviation="8" result="br2"/>
      <feMerge><feMergeNode in="br2"/><feMergeNode in="br1"/><feMergeNode in="SourceGraphic"/></feMerge>
    </filter>
    <filter id="glowMagenta" x="-50%" y="-50%" width="200%" height="200%">
      <feGaussianBlur stdDeviation="2.5" result="br1"/>
      <feGaussianBlur stdDeviation="7" result="br2"/>
      <feMerge><feMergeNode in="br2"/><feMergeNode in="br1"/><feMergeNode in="SourceGraphic"/></feMerge>
    </filter>
    <filter id="glowStrong" x="-50%" y="-50%" width="200%" height="200%">
      <feGaussianBlur stdDeviation="2" result="br1"/>
      <feGaussianBlur stdDeviation="6" result="br2"/>
      <feGaussianBlur stdDeviation="14" result="br3"/>
      <feMerge><feMergeNode in="br3"/><feMergeNode in="br2"/><feMergeNode in="br1"/><feMergeNode in="SourceGraphic"/></feMerge>
    </filter>
    <filter id="glowSubtle" x="-20%" y="-20%" width="140%" height="140%">
      <feGaussianBlur stdDeviation="2"/>
      <feMerge><feMergeNode in="SourceGraphic"/><feMergeNode in="SourceGraphic"/></feMerge>
    </filter>
    <filter id="glowText" x="-30%" y="-30%" width="160%" height="160%">
      <feGaussianBlur stdDeviation="1.5" result="tb1"/>
      <feGaussianBlur stdDeviation="4" result="tb2"/>
      <feMerge><feMergeNode in="tb2"/><feMergeNode in="tb1"/><feMergeNode in="SourceGraphic"/></feMerge>
    </filter>
  </defs>
  <g transform="translate(0, 4)">
    <polygon points="30,2 56,2 70,16 70,44 56,58 30,58 16,44 16,16" fill="none" stroke="#00F0FF" stroke-width="0.5" opacity="0.15" filter="url(#glowStrong)"/>
    <polygon points="30,2 56,2 70,16 70,44 56,58 30,58 16,44 16,16" fill="url(#gHexBg)" stroke="url(#gAccent)" stroke-width="1.8" filter="url(#glowSubtle)"/>
    <polygon points="30,4 55,4 68,17 68,43 55,56 30,56 17,43 17,17" fill="none" stroke="url(#gAccent)" stroke-width="0.3" opacity="0.4"/>
    <path d="M 17 22 L 10 22 L 10 12 L 20 12" fill="none" stroke="#00F0FF" stroke-width="0.8" opacity="0.35"/>
    <circle cx="10" cy="22" r="1.2" fill="#00F0FF" opacity="0.5"/>
    <circle cx="20" cy="12" r="1" fill="#00F0FF" opacity="0.6"/>
    <path d="M 67 38 L 74 38 L 74 48 L 64 48" fill="none" stroke="#FF00FF" stroke-width="0.8" opacity="0.35"/>
    <circle cx="74" cy="38" r="1.2" fill="#FF00FF" opacity="0.5"/>
    <circle cx="64" cy="48" r="1" fill="#FF00FF" opacity="0.6"/>
    <path d="M 22 48 L 14 48 L 14 56 L 24 56" fill="none" stroke="#7C3AED" stroke-width="0.7" opacity="0.3"/>
    <circle cx="14" cy="48" r="1" fill="#7C3AED" opacity="0.5"/>
    <polygon points="30,9 51,9 62,20 62,40 51,51 30,51 19,40 19,20" fill="none" stroke="rgba(0,240,255,0.08)" stroke-width="0.8"/>
    <line x1="28" y1="16" x2="38" y2="44" stroke="#00F0FF" stroke-width="3.5" stroke-linecap="round" stroke-linejoin="round" filter="url(#glowCyan)"/>
    <line x1="28" y1="16" x2="38" y2="44" stroke="#06F0B0" stroke-width="1.5" stroke-linecap="round" stroke-linejoin="round"/>
    <line x1="56" y1="16" x2="46" y2="44" stroke="#FF00FF" stroke-width="3.5" stroke-linecap="round" stroke-linejoin="round" filter="url(#glowMagenta)"/>
    <line x1="56" y1="16" x2="46" y2="44" stroke="#7C3AED" stroke-width="1.5" stroke-linecap="round" stroke-linejoin="round"/>
    <polygon points="50,26 50,38 40,32" fill="rgba(255,255,255,0.0)" stroke="#00F0FF" stroke-width="1.5" stroke-linejoin="round" opacity="0.35"/>
    <circle cx="42" cy="44" r="2" fill="#00F0FF" filter="url(#glowCyan)" opacity="0.7"/>
    <circle cx="42" cy="44" r="1" fill="#fff" opacity="0.9"/>
    <circle cx="35" cy="22" r="1.5" fill="#00F0FF" filter="url(#glowCyan)" opacity="0.6"/>
    <circle cx="37" cy="30" r="1" fill="#00F0FF" opacity="0.4"/>
    <circle cx="50" cy="24" r="1.5" fill="#FF00FF" filter="url(#glowMagenta)" opacity="0.6"/>
    <circle cx="48" cy="32" r="1" fill="#FF00FF" opacity="0.4"/>
    <g opacity="0.04"><line x1="16" y1="22" x2="70" y2="22" stroke="#00F0FF" stroke-width="0.3"/><line x1="16" y1="30" x2="70" y2="30" stroke="#00F0FF" stroke-width="0.3"/><line x1="16" y1="38" x2="70" y2="38" stroke="#00F0FF" stroke-width="0.3"/></g>
    <path d="M 17 20 L 17 16 L 20 16" fill="none" stroke="#00F0FF" stroke-width="1" opacity="0.15"/>
    <path d="M 67 20 L 67 16 L 64 16" fill="none" stroke="#FF00FF" stroke-width="1" opacity="0.15"/>
    <path d="M 17 40 L 17 44 L 20 44" fill="none" stroke="#7C3AED" stroke-width="1" opacity="0.15"/>
    <path d="M 67 40 L 67 44 L 64 44" fill="none" stroke="#7C3AED" stroke-width="1" opacity="0.15"/>
  </g>
  <g transform="translate(84, 0)">
    <text x="0" y="44" font-family="'Orbitron','Segoe UI',system-ui,sans-serif" font-size="32" font-weight="800" letter-spacing="4" fill="#00F0FF" filter="url(#glowText)">Vid</text>
    <text x="72" y="44" font-family="'Orbitron','Segoe UI',system-ui,sans-serif" font-size="32" font-weight="800" letter-spacing="4" fill="url(#gMagenta)" filter="url(#glowText)">Flow</text>
    <text x="0" y="62" font-family="'Inter',system-ui,sans-serif" font-size="8" font-weight="400" letter-spacing="3" fill="rgba(128,184,224,0.5)">AI VIDEO GENERATION</text>
    <line x1="0" y1="65" x2="155" y2="65" stroke="url(#gAccent)" stroke-width="0.5" opacity="0.2"/>
  </g>
</svg>